<svg width="99" height="32" viewBox="0 0 99 32" fill="none" xmlns="http://www.w3.org/2000/svg">
<path d="M2.64844 25L0.304688 7.9375H3.31641L4.45312 17.4766L4.53516 18.1445L4.64062 17.4414L5.98828 7.9375H8.34375L9.77344 17.5117L9.87891 18.2148L9.96094 17.5L11.1211 7.9375H14.1445L11.7773 25H8.80078L7.3125 15.7891L7.18359 14.9219L7.05469 15.7891L5.625 25H2.64844ZM21.8588 25.2344C20.8822 25.2344 19.9955 25.0742 19.1986 24.7539C18.4017 24.4336 17.7181 23.9961 17.1478 23.4414C16.5775 22.8945 16.1361 22.25 15.8236 21.5078C15.5189 20.7578 15.3666 19.957 15.3666 19.1055V18.6367C15.3666 17.668 15.5189 16.7852 15.8236 15.9883C16.1283 15.1836 16.5541 14.4922 17.1009 13.9141C17.6478 13.3359 18.2963 12.8867 19.0463 12.5664C19.7963 12.2461 20.6127 12.0859 21.4955 12.0859C22.4095 12.0859 23.222 12.2383 23.933 12.543C24.6517 12.8398 25.2611 13.2617 25.7611 13.8086C26.2533 14.3555 26.6283 15.0156 26.8861 15.7891C27.1439 16.5547 27.2728 17.4023 27.2728 18.332V19.7148H18.6713V19.75C18.7806 20.2578 18.9213 20.668 19.0931 20.9805C19.265 21.2852 19.4955 21.5625 19.7845 21.8125C20.0814 22.0703 20.4213 22.2695 20.8041 22.4102C21.1869 22.5508 21.6048 22.6211 22.058 22.6211C22.6986 22.6211 23.3197 22.5 23.9213 22.2578C24.5228 22.0156 25.0111 21.6523 25.3861 21.168L27.015 22.9258C26.6009 23.5117 25.9447 24.043 25.0463 24.5195C24.1478 24.9961 23.0853 25.2344 21.8588 25.2344ZM21.472 14.7227C21.1048 14.7227 20.7689 14.7891 20.4642 14.9219C20.1595 15.0469 19.8939 15.2305 19.6673 15.4727C19.433 15.7148 19.2377 16.0039 19.0814 16.3398C18.9252 16.6758 18.808 17.0508 18.7298 17.4648H24.0736V17.207C24.0736 16.8633 24.0111 16.5391 23.8861 16.2344C23.7611 15.9297 23.5892 15.6641 23.3705 15.4375C23.1517 15.2188 22.8822 15.0469 22.5619 14.9219C22.2494 14.7891 21.8861 14.7227 21.472 14.7227ZM30.4402 7H37.53V22.3516H41.1628V25H30.4402V22.3516H34.237V9.66016H30.4402V7ZM44.4942 7H51.5841V22.3516H55.2169V25H44.4942V22.3516H48.2911V9.66016H44.4942V7Z" fill="#1ED760"/>
<path d="M57.6811 25V7.9375H62.0991C62.8881 7.9375 63.6264 8.03516 64.3139 8.23047C65.0014 8.41797 65.6264 8.6875 66.1889 9.03906C66.6811 9.32812 67.1186 9.68359 67.5014 10.1055C67.892 10.5195 68.2319 10.9727 68.5209 11.4648C68.8569 12.0664 69.1147 12.7305 69.2944 13.457C69.4819 14.1836 69.5756 14.957 69.5756 15.7773V17.1836C69.5756 17.9727 69.4897 18.7188 69.3178 19.4219C69.1459 20.125 68.9038 20.7695 68.5913 21.3555C68.2944 21.8789 67.9467 22.3633 67.5483 22.8086C67.1498 23.2461 66.7123 23.6133 66.2358 23.9102C65.6811 24.2617 65.0678 24.5312 64.3959 24.7188C63.7319 24.9062 63.0209 25 62.2631 25H57.6811ZM60.9975 10.6094V22.3516H62.2631C62.6694 22.3516 63.0483 22.3008 63.3998 22.1992C63.7514 22.0977 64.0717 21.9492 64.3608 21.7539C64.6577 21.5508 64.9233 21.293 65.1577 20.9805C65.3998 20.6602 65.6069 20.2891 65.7788 19.8672C65.9194 19.5 66.0248 19.0938 66.0952 18.6484C66.1733 18.1953 66.2123 17.707 66.2123 17.1836V15.7539C66.2123 15.2617 66.1733 14.7969 66.0952 14.3594C66.0248 13.9141 65.9194 13.5078 65.7788 13.1406C65.6069 12.7031 65.3803 12.3125 65.0991 11.9688C64.8256 11.625 64.5053 11.3438 64.1381 11.125C63.8569 10.9609 63.5444 10.8359 63.2006 10.75C62.8647 10.6562 62.4975 10.6094 62.0991 10.6094H60.9975ZM78.075 25.2344C77.0984 25.2344 76.2117 25.0742 75.4148 24.7539C74.618 24.4336 73.9344 23.9961 73.3641 23.4414C72.7937 22.8945 72.3523 22.25 72.0398 21.5078C71.7352 20.7578 71.5828 19.957 71.5828 19.1055V18.6367C71.5828 17.668 71.7352 16.7852 72.0398 15.9883C72.3445 15.1836 72.7703 14.4922 73.3172 13.9141C73.8641 13.3359 74.5125 12.8867 75.2625 12.5664C76.0125 12.2461 76.8289 12.0859 77.7117 12.0859C78.6258 12.0859 79.4383 12.2383 80.1492 12.543C80.868 12.8398 81.4773 13.2617 81.9773 13.8086C82.4695 14.3555 82.8445 15.0156 83.1023 15.7891C83.3602 16.5547 83.4891 17.4023 83.4891 18.332V19.7148H74.8875V19.75C74.9969 20.2578 75.1375 20.668 75.3094 20.9805C75.4812 21.2852 75.7117 21.5625 76.0008 21.8125C76.2977 22.0703 76.6375 22.2695 77.0203 22.4102C77.4031 22.5508 77.8211 22.6211 78.2742 22.6211C78.9148 22.6211 79.5359 22.5 80.1375 22.2578C80.7391 22.0156 81.2273 21.6523 81.6023 21.168L83.2312 22.9258C82.8172 23.5117 82.1609 24.043 81.2625 24.5195C80.3641 24.9961 79.3016 25.2344 78.075 25.2344ZM77.6883 14.7227C77.3211 14.7227 76.9852 14.7891 76.6805 14.9219C76.3758 15.0469 76.1102 15.2305 75.8836 15.4727C75.6492 15.7148 75.4539 16.0039 75.2977 16.3398C75.1414 16.6758 75.0242 17.0508 74.9461 17.4648H80.2898V17.207C80.2898 16.8633 80.2273 16.5391 80.1023 16.2344C79.9773 15.9297 79.8055 15.6641 79.5867 15.4375C79.368 15.2188 79.0984 15.0469 78.7781 14.9219C78.4656 14.7891 78.1023 14.7227 77.6883 14.7227ZM90.008 25L85.1681 12.3203H88.5666L91.3556 21.2617L91.5314 22.1523L91.7072 21.2617L94.4845 12.3203H97.883L93.0666 25H90.008Z" fill="#DBDBDB"/>
</svg>
