<svg width="98" height="19" viewBox="0 0 98 19" fill="none" xmlns="http://www.w3.org/2000/svg">
<path d="M2.64844 18L0.304688 0.9375H3.31641L4.45312 10.4766L4.53516 11.1445L4.64062 10.4414L5.98828 0.9375H8.34375L9.77344 10.5117L9.87891 11.2148L9.96094 10.5L11.1211 0.9375H14.1445L11.7773 18H8.80078L7.3125 8.78906L7.18359 7.92188L7.05469 8.78906L5.625 18H2.64844ZM21.8588 18.2344C20.8822 18.2344 19.9955 18.0742 19.1986 17.7539C18.4017 17.4336 17.7181 16.9961 17.1478 16.4414C16.5775 15.8945 16.1361 15.25 15.8236 14.5078C15.5189 13.7578 15.3666 12.957 15.3666 12.1055V11.6367C15.3666 10.668 15.5189 9.78516 15.8236 8.98828C16.1283 8.18359 16.5541 7.49219 17.1009 6.91406C17.6478 6.33594 18.2963 5.88672 19.0463 5.56641C19.7963 5.24609 20.6127 5.08594 21.4955 5.08594C22.4095 5.08594 23.222 5.23828 23.933 5.54297C24.6517 5.83984 25.2611 6.26172 25.7611 6.80859C26.2533 7.35547 26.6283 8.01562 26.8861 8.78906C27.1439 9.55469 27.2728 10.4023 27.2728 11.332V12.7148H18.6713V12.75C18.7806 13.2578 18.9213 13.668 19.0931 13.9805C19.265 14.2852 19.4955 14.5625 19.7845 14.8125C20.0814 15.0703 20.4213 15.2695 20.8041 15.4102C21.1869 15.5508 21.6048 15.6211 22.058 15.6211C22.6986 15.6211 23.3197 15.5 23.9213 15.2578C24.5228 15.0156 25.0111 14.6523 25.3861 14.168L27.015 15.9258C26.6009 16.5117 25.9447 17.043 25.0463 17.5195C24.1478 17.9961 23.0853 18.2344 21.8588 18.2344ZM21.472 7.72266C21.1048 7.72266 20.7689 7.78906 20.4642 7.92188C20.1595 8.04688 19.8939 8.23047 19.6673 8.47266C19.433 8.71484 19.2377 9.00391 19.0814 9.33984C18.9252 9.67578 18.808 10.0508 18.7298 10.4648H24.0736V10.207C24.0736 9.86328 24.0111 9.53906 23.8861 9.23438C23.7611 8.92969 23.5892 8.66406 23.3705 8.4375C23.1517 8.21875 22.8822 8.04688 22.5619 7.92188C22.2494 7.78906 21.8861 7.72266 21.472 7.72266ZM30.4402 0H37.53V15.3516H41.1628V18H30.4402V15.3516H34.237V2.66016H30.4402V0ZM44.4942 0H51.5841V15.3516H55.2169V18H44.4942V15.3516H48.2911V2.66016H44.4942V0Z" fill="#1ED760"/>
<path d="M57.6811 18V0.9375H62.0991C62.8881 0.9375 63.6264 1.03516 64.3139 1.23047C65.0014 1.41797 65.6264 1.6875 66.1889 2.03906C66.6811 2.32812 67.1186 2.68359 67.5014 3.10547C67.892 3.51953 68.2319 3.97266 68.5209 4.46484C68.8569 5.06641 69.1147 5.73047 69.2944 6.45703C69.4819 7.18359 69.5756 7.95703 69.5756 8.77734V10.1836C69.5756 10.9727 69.4897 11.7188 69.3178 12.4219C69.1459 13.125 68.9038 13.7695 68.5913 14.3555C68.2944 14.8789 67.9467 15.3633 67.5483 15.8086C67.1498 16.2461 66.7123 16.6133 66.2358 16.9102C65.6811 17.2617 65.0678 17.5312 64.3959 17.7188C63.7319 17.9062 63.0209 18 62.2631 18H57.6811ZM60.9975 3.60938V15.3516H62.2631C62.6694 15.3516 63.0483 15.3008 63.3998 15.1992C63.7514 15.0977 64.0717 14.9492 64.3608 14.7539C64.6577 14.5508 64.9233 14.293 65.1577 13.9805C65.3998 13.6602 65.6069 13.2891 65.7788 12.8672C65.9194 12.5 66.0248 12.0938 66.0952 11.6484C66.1733 11.1953 66.2123 10.707 66.2123 10.1836V8.75391C66.2123 8.26172 66.1733 7.79688 66.0952 7.35938C66.0248 6.91406 65.9194 6.50781 65.7788 6.14062C65.6069 5.70312 65.3803 5.3125 65.0991 4.96875C64.8256 4.625 64.5053 4.34375 64.1381 4.125C63.8569 3.96094 63.5444 3.83594 63.2006 3.75C62.8647 3.65625 62.4975 3.60938 62.0991 3.60938H60.9975ZM78.075 18.2344C77.0984 18.2344 76.2117 18.0742 75.4148 17.7539C74.618 17.4336 73.9344 16.9961 73.3641 16.4414C72.7937 15.8945 72.3523 15.25 72.0398 14.5078C71.7352 13.7578 71.5828 12.957 71.5828 12.1055V11.6367C71.5828 10.668 71.7352 9.78516 72.0398 8.98828C72.3445 8.18359 72.7703 7.49219 73.3172 6.91406C73.8641 6.33594 74.5125 5.88672 75.2625 5.56641C76.0125 5.24609 76.8289 5.08594 77.7117 5.08594C78.6258 5.08594 79.4383 5.23828 80.1492 5.54297C80.868 5.83984 81.4773 6.26172 81.9773 6.80859C82.4695 7.35547 82.8445 8.01562 83.1023 8.78906C83.3602 9.55469 83.4891 10.4023 83.4891 11.332V12.7148H74.8875V12.75C74.9969 13.2578 75.1375 13.668 75.3094 13.9805C75.4812 14.2852 75.7117 14.5625 76.0008 14.8125C76.2977 15.0703 76.6375 15.2695 77.0203 15.4102C77.4031 15.5508 77.8211 15.6211 78.2742 15.6211C78.9148 15.6211 79.5359 15.5 80.1375 15.2578C80.7391 15.0156 81.2273 14.6523 81.6023 14.168L83.2312 15.9258C82.8172 16.5117 82.1609 17.043 81.2625 17.5195C80.3641 17.9961 79.3016 18.2344 78.075 18.2344ZM77.6883 7.72266C77.3211 7.72266 76.9852 7.78906 76.6805 7.92188C76.3758 8.04688 76.1102 8.23047 75.8836 8.47266C75.6492 8.71484 75.4539 9.00391 75.2977 9.33984C75.1414 9.67578 75.0242 10.0508 74.9461 10.4648H80.2898V10.207C80.2898 9.86328 80.2273 9.53906 80.1023 9.23438C79.9773 8.92969 79.8055 8.66406 79.5867 8.4375C79.368 8.21875 79.0984 8.04688 78.7781 7.92188C78.4656 7.78906 78.1023 7.72266 77.6883 7.72266ZM90.008 18L85.1681 5.32031H88.5666L91.3556 14.2617L91.5314 15.1523L91.7072 14.2617L94.4845 5.32031H97.883L93.0666 18H90.008Z" fill="#121A2A"/>
</svg>
