<svg width="109" height="39" viewBox="0 0 109 39" fill="none" xmlns="http://www.w3.org/2000/svg">
<path d="M18.468 34L1.44 26.332V23.812L18.468 16.144V19.384L5.22 25.072L18.468 30.76V34ZM19.8984 34L29.2584 9.952H32.3904L23.0304 34H19.8984ZM38.7967 34L32.7487 9.952H36.4567L41.1367 29.824L45.5287 9.952H49.4887L53.8807 29.824L58.5608 9.952H62.2687L56.2567 34H52.1527L47.5087 14.128L42.8647 34H38.7967Z" fill="#1ED760"/>
<path d="M64.8191 34V9.952H71.3711C73.2911 9.952 75.0431 10.156 76.6271 10.564C78.2351 10.948 79.6271 11.596 80.8031 12.508C81.9791 13.42 82.8911 14.656 83.5391 16.216C84.1871 17.752 84.5111 19.66 84.5111 21.94C84.5111 24.244 84.1871 26.176 83.5391 27.736C82.8911 29.272 81.9791 30.508 80.8031 31.444C79.6271 32.356 78.2351 33.016 76.6271 33.424C75.0431 33.808 73.2911 34 71.3711 34H64.8191ZM68.2031 31.156H71.2991C72.5471 31.156 73.7471 31.06 74.8991 30.868C76.0751 30.652 77.1191 30.244 78.0311 29.644C78.9671 29.02 79.6991 28.096 80.2271 26.872C80.7791 25.624 81.0551 23.98 81.0551 21.94C81.0551 19.9 80.7791 18.28 80.2271 17.08C79.6991 15.856 78.9671 14.944 78.0311 14.344C77.1191 13.72 76.0751 13.312 74.8991 13.12C73.7471 12.904 72.5471 12.796 71.2991 12.796H68.2031V31.156ZM87.2058 34V30.76L100.454 25.072L87.2058 19.384V16.144L104.234 23.812V26.332L87.2058 34Z" fill="#121A2A"/>
</svg>
