<svg width="30" height="30" viewBox="0 0 30 30" fill="none" xmlns="http://www.w3.org/2000/svg">
<path fill-rule="evenodd" clip-rule="evenodd" d="M7.77372 6.83625C7.68641 6.92334 7.61714 7.02679 7.56988 7.14069C7.52262 7.25458 7.49829 7.37669 7.49829 7.5C7.49829 7.62331 7.52262 7.74542 7.56988 7.85931C7.61714 7.97321 7.68641 8.07666 7.77372 8.16375L14.6118 15L7.77372 21.8363C7.59768 22.0123 7.49878 22.251 7.49878 22.5C7.49878 22.749 7.59768 22.9877 7.77372 23.1637C7.94975 23.3398 8.18851 23.4387 8.43747 23.4387C8.68642 23.4387 8.92518 23.3398 9.10122 23.1637L16.6012 15.6637C16.6885 15.5767 16.7578 15.4732 16.8051 15.3593C16.8523 15.2454 16.8766 15.1233 16.8766 15C16.8766 14.8767 16.8523 14.7546 16.8051 14.6407C16.7578 14.5268 16.6885 14.4233 16.6012 14.3363L9.10122 6.83625C9.01413 6.74894 8.91068 6.67968 8.79678 6.63241C8.68288 6.58515 8.56078 6.56082 8.43747 6.56082C8.31415 6.56082 8.19205 6.58515 8.07815 6.63241C7.96426 6.67968 7.8608 6.74894 7.77372 6.83625ZM21.5625 1.875C21.8111 1.875 22.0496 1.97377 22.2254 2.14959C22.4012 2.3254 22.5 2.56386 22.5 2.8125V27.1875C22.5 27.4361 22.4012 27.6746 22.2254 27.8504C22.0496 28.0262 21.8111 28.125 21.5625 28.125C21.3138 28.125 21.0754 28.0262 20.8996 27.8504C20.7237 27.6746 20.625 27.4361 20.625 27.1875V2.8125C20.625 2.56386 20.7237 2.3254 20.8996 2.14959C21.0754 1.97377 21.3138 1.875 21.5625 1.875Z" fill="#929292"/>
</svg>
